<?xml version="1.0" encoding="UTF-8"?>
<svg xmlns="http://www.w3.org/2000/svg" xmlns:xlink="http://www.w3.org/1999/xlink" viewBox="0 0 48 48" width="48px" height="48px">
<g id="surface53925682">
<path style=" stroke:none;fill-rule:evenodd;fill:rgb(0%,0%,0%);fill-opacity:1;" d="M 33.566406 16 L 28.566406 16 L 32.785156 10 L 37.785156 10 Z M 39.566406 16 L 34.566406 16 L 38.785156 10 L 43.785156 10 Z M 39.566406 16 "/>
<path style=" stroke:none;fill-rule:evenodd;fill:rgb(0%,0%,0%);fill-opacity:1;" d="M 29.351562 22 L 24.351562 22 L 28.566406 16 L 33.566406 16 Z M 35.351562 22 L 30.351562 22 L 34.566406 16 L 39.566406 16 Z M 35.351562 22 "/>
<path style=" stroke:none;fill-rule:evenodd;fill:rgb(0%,0%,0%);fill-opacity:1;" d="M 25.136719 28 L 20.136719 28 L 24.351562 22 L 29.351562 22 Z M 31.136719 28 L 26.136719 28 L 30.351562 22 L 35.351562 22 Z M 31.136719 28 "/>
<path style=" stroke:none;fill-rule:evenodd;fill:rgb(0%,0%,0%);fill-opacity:1;" d="M 12.144531 36 L 15 40 L 11 41 L 7.332031 36 Z M 18.144531 36 L 21 40 L 17 41 L 13.332031 36 Z M 18.144531 36 "/>
<path style=" stroke:none;fill-rule:evenodd;fill:rgb(0%,0%,0%);fill-opacity:1;" d="M 18.144531 36 L 13.332031 36 L 9.667969 31 L 14.570312 31 Z M 18.144531 36 "/>
<path style=" stroke:none;fill-rule:evenodd;fill:rgb(0%,0%,0%);fill-opacity:1;" d="M 20.917969 34 L 15.917969 34 L 20.136719 28 L 25.136719 28 Z M 26.917969 34 L 21.917969 34 L 26.136719 28 L 31.136719 28 Z M 26.917969 34 "/>
<path style=" stroke:none;fill-rule:evenodd;fill:rgb(0%,0%,0%);fill-opacity:1;" d="M 16 41 L 11 41 L 15.917969 34 L 20.917969 34 Z M 22 41 L 17 41 L 21.917969 34 L 26.917969 34 Z M 22 41 "/>
<path style=" stroke:none;fill-rule:evenodd;fill:rgb(0%,0%,0%);fill-opacity:1;" d="M 37.785156 10 L 32.785156 10 L 37 4 L 42 4 Z M 43.785156 10 L 38.785156 10 L 43 4 L 48 4 Z M 43.785156 10 "/>
<path style=" stroke:none;fill-rule:evenodd;fill:rgb(0%,0%,0%);fill-opacity:1;" d="M 12.144531 36 L 7.332031 36 L 3.667969 31 L 8.570312 31 Z M 12.144531 36 "/>
<path style=" stroke:none;fill-rule:evenodd;fill:rgb(0%,0%,0%);fill-opacity:1;" d="M 8.570312 31 L 3.667969 31 L 0 26 L 5 26 Z M 14.570312 31 L 9.667969 31 L 6 26 L 11 26 Z M 14.570312 31 "/>
</g>
</svg>
