<svg fill="#000000" xmlns="http://www.w3.org/2000/svg"  viewBox="0 0 48 48" width="48px" height="48px"><path d="M 13.5 6 C 9.3754991 6 6 9.3754991 6 13.5 L 6 34.5 C 6 38.624501 9.3754991 42 13.5 42 L 34.5 42 C 38.624501 42 42 38.624501 42 34.5 L 42 13.5 C 42 9.3754991 38.624501 6 34.5 6 L 13.5 6 z M 13.349609 18 C 14.179609 18 14.849609 18.67 14.849609 19.5 C 14.849609 20.33 14.179609 21 13.349609 21 C 12.519609 21 11.849609 20.33 11.849609 19.5 C 11.849609 18.67 12.519609 18 13.349609 18 z M 21.400391 18 C 24.290391 18 26.650391 20.69 26.650391 24 C 26.650391 27.31 24.290391 30 21.400391 30 C 18.500391 30 16.150391 27.31 16.150391 24 C 16.150391 20.69 18.500391 18 21.400391 18 z M 31.080078 18 L 32.400391 18 C 34.410391 18 35.350938 19.419844 35.460938 19.589844 C 35.820937 20.169844 35.640547 20.940547 35.060547 21.310547 C 34.470547 21.680547 33.699844 21.500156 33.339844 20.910156 C 33.319844 20.900156 33.020391 20.5 32.400391 20.5 L 31.080078 20.5 C 30.430078 20.5 29.900391 20.999141 29.900391 21.619141 C 29.900391 22.249141 30.430078 22.75 31.080078 22.75 L 32.460938 22.75 C 34.490938 22.75 36.150391 24.380859 36.150391 26.380859 C 36.150391 28.370859 34.490938 30 32.460938 30 L 30.679688 30 C 29.179688 30 27.869375 29.219453 27.359375 28.439453 C 26.969375 27.869453 27.129219 27.090938 27.699219 26.710938 C 28.269219 26.330938 29.039688 26.479062 29.429688 27.039062 C 29.539687 27.169062 30.029687 27.5 30.679688 27.5 L 32.460938 27.5 C 33.110937 27.5 33.650391 27.000859 33.650391 26.380859 C 33.650391 25.750859 33.110938 25.25 32.460938 25.25 L 31.080078 25.25 C 29.050078 25.25 27.400391 23.619141 27.400391 21.619141 C 27.400391 19.629141 29.050078 18 31.080078 18 z M 21.400391 20.5 C 21.020391 20.5 20.657187 20.598047 20.328125 20.775391 C 19.999063 20.952734 19.703828 21.208516 19.455078 21.525391 C 19.330703 21.683828 19.21793 21.858691 19.119141 22.044922 C 18.921563 22.417383 18.778281 22.839648 18.705078 23.294922 C 18.668477 23.522559 18.650391 23.75875 18.650391 24 C 18.650391 24.24125 18.668477 24.477441 18.705078 24.705078 C 18.74168 24.932715 18.795703 25.152031 18.865234 25.361328 C 18.934766 25.570625 19.020352 25.768848 19.119141 25.955078 C 19.21793 26.141309 19.330703 26.316172 19.455078 26.474609 C 19.579453 26.633047 19.715039 26.776426 19.861328 26.902344 C 20.153906 27.15418 20.4875 27.336289 20.845703 27.429688 C 21.024805 27.476387 21.210391 27.5 21.400391 27.5 C 21.589141 27.5 21.772754 27.476387 21.951172 27.429688 C 23.200098 27.102793 24.150391 25.68875 24.150391 24 C 24.150391 22.07 22.910391 20.5 21.400391 20.5 z M 13.339844 22 C 14.029844 22 14.589844 22.56 14.589844 23.25 L 14.589844 28.75 C 14.589844 29.44 14.029844 30 13.339844 30 C 12.649844 30 12.089844 29.44 12.089844 28.75 L 12.089844 23.25 C 12.089844 22.56 12.649844 22 13.339844 22 z"/></svg>